PathFileType	4	(X/Y/Z)	C:\Users\WrightLab\Desktop\Jo\P1.2Trial6.trc
DataRate	CameraRate	NumFrames	NumMarkers	Units	OrigDataRate	OrigDataStartFrame	OrigNumFrames
100.00	100.00	       6	19	mm	100.00	339	       542
Frame#	Time	Headset_Front			Headset_Back			Headset_Left			Headset_Right			Left_Shoulder			Right_Shoulder			Sternum			C7			Left Elbow			Right Elbow			Left Wrist			Right Wrist			Left ASIS			Right ASIS			S2			Left Knee			Right Knee			Left Ankle			Right Ankle			
		X1	Y1	Z1	X2	Y2	Z2	X3	Y3	Z3	X4	Y4	Z4	X5	Y5	Z5	X6	Y6	Z6	X7	Y7	Z7	X8	Y8	Z8	X9	Y9	Z9	X10	Y10	Z10	X11	Y11	Z11	X12	Y12	Z12	X13	Y13	Z13	X14	Y14	Z14	X15	Y15	Z15	X16	Y16	Z16	X17	Y17	Z17	X18	Y18	Z18	X19	Y19	Z19	

339	3.380	50.62502	1402.08191	1458.84155	72.98954	1543.51392	1191.24829	176.08171	1480.08142	1309.80005	-46.97095	1441.83801	1353.20422	288.92673	1275.03394	1180.70728	-125.24601	1277.56714	1272.75488	107.53351	1210.05725	1348.49573	60.50486	1332.67639	1121.66882	337.39539	997.44293	1089.77649	-205.71257	1028.98157	1280.27148	447.57983	800.82367	1142.80042	-178.40945	820.39899	1461.16907	248.93076	906.54321	1327.91162	-38.27911	884.83099	1353.11731	83.27154	933.31641	1060.54907	294.37823	539.07397	1444.45386	-7.52551	440.66739	1265.22729	406.40317	196.66057	1456.21289	78.43436	111.57742	1165.86926	
340	3.390	51.18309	1400.91382	1468.55139	75.05881	1542.16870	1200.70374	177.31888	1478.83765	1319.39929	-45.75929	1440.79480	1362.08179	290.76495	1273.87292	1193.06873	-124.11533	1276.12341	1280.41821	107.89249	1208.50732	1357.95313	63.06766	1331.69458	1131.34875	340.39636	997.31311	1101.33228	-203.90703	1027.61560	1287.78308	449.88208	799.58893	1155.24780	-176.42030	821.27039	1471.90222	248.06548	904.01886	1337.75073	-37.83738	884.38855	1361.17029	87.72144	932.65979	1069.47327	288.53796	535.19354	1454.27063	-6.57161	439.68094	1268.72974	405.89749	203.92970	1482.90869	78.40128	110.83688	1166.13049	
341	3.400	51.08320	1399.77832	1478.51477	77.01609	1540.94141	1210.24841	177.92412	1477.71997	1329.67737	-46.16584	1440.50195	1371.26758	292.71887	1272.67285	1204.61914	-123.10752	1274.79565	1288.01758	108.15668	1207.27710	1367.80249	66.06789	1330.87231	1140.72437	343.18292	996.21808	1113.26038	-202.25539	1026.13135	1295.42517	452.66162	798.63269	1168.91736	-174.36713	822.05103	1481.88293	246.98409	902.90027	1347.91211	-37.34122	882.32434	1366.39539	91.92464	931.77679	1078.04724	283.46710	531.19836	1464.17700	-6.90403	438.11288	1273.04395	402.69489	210.37048	1506.82495	78.33320	110.13352	1166.18494	
342	3.410	52.05368	1398.77332	1487.59570	79.41008	1539.59167	1219.89014	179.25095	1476.22852	1339.97510	-44.81767	1439.06445	1380.20435	294.61844	1271.33923	1216.34961	-121.86811	1273.50745	1295.62146	108.48616	1206.03113	1377.87964	68.50407	1329.15320	1150.33289	346.84137	994.87848	1125.06311	-200.54839	1024.34839	1302.83313	454.75916	797.27075	1182.74756	-172.49699	821.97687	1491.53625	246.15318	901.01422	1359.02246	-36.34186	881.31732	1373.63000	95.66498	930.95764	1086.82068	278.63773	528.60626	1474.20398	-6.53541	437.05966	1277.57471	396.82861	216.18779	1528.42712	78.77841	108.82991	1165.27502	
343	3.420	52.16808	1397.72070	1497.72046	80.22662	1538.55090	1229.64587	180.65157	1475.14978	1349.97937	-44.27164	1437.09570	1387.46069	296.62720	1270.14905	1227.73914	-120.47342	1271.79529	1303.53748	108.82540	1204.82446	1387.78455	71.03812	1328.42676	1160.04480	349.30676	993.91333	1137.01184	-199.10374	1022.54285	1310.69446	457.23422	795.81073	1196.65161	-171.40761	821.84943	1499.90161	244.29834	898.16302	1368.31409	-35.28147	879.53876	1382.48474	99.47167	929.97052	1095.47046	274.43933	526.74866	1485.01489	-6.10678	436.11972	1282.09509	390.38934	222.32756	1549.45190	78.52509	107.89853	1166.52844	
344	3.430	52.34032	1396.45813	1506.79016	81.94044	1537.65173	1239.38440	181.88538	1474.36011	1361.00305	-43.33913	1436.33423	1397.11658	298.85306	1269.10205	1239.99207	-119.54684	1270.32544	1311.47412	109.18597	1203.20544	1397.90930	73.59375	1326.75562	1170.13721	351.72964	992.84631	1150.49231	-197.06248	1020.46393	1317.65125	459.02145	794.38824	1210.44629	-170.07643	821.67688	1508.32886	243.37216	896.71027	1379.27454	-34.87732	877.30554	1389.68652	102.92514	928.59454	1104.63611	269.03159	526.40753	1494.75293	-5.45749	434.70428	1287.39575	382.40530	227.43182	1568.74524	78.59000	107.94658	1166.91150	
